<svg width="124" height="130" viewBox="0 0 124 130" fill="none" xmlns="http://www.w3.org/2000/svg">
<path opacity="0.1" d="M0 130V97.4327C0 86.4872 1.39169 75.0932 4.17508 63.2505C7.09764 51.2284 11.2727 39.7447 16.7003 28.7992C22.1279 17.6743 28.6689 8.07453 36.3232 0L58.2424 19.648C51.8406 31.4907 46.9001 43.6922 43.4209 56.2526C39.9416 68.6335 38.202 82.0911 38.202 96.6253V130H0ZM65.7576 130V97.4327C65.7576 86.4872 67.1493 75.0932 69.9327 63.2505C72.8552 51.2284 77.0303 39.7447 82.4579 28.7992C87.8855 17.6743 94.4265 8.07453 102.081 0L124 19.648C117.598 31.4907 112.658 43.6922 109.178 56.2526C105.699 68.6335 103.96 82.0911 103.96 96.6253V130H65.7576Z" fill="#424242"/>
</svg>
