<svg width="24" height="24" viewBox="0 0 24 24" fill="none" xmlns="http://www.w3.org/2000/svg">
<path d="M13.4436 11.7996L10.7484 10.542C10.5132 10.4328 10.32 10.5552 10.32 10.8156V13.1844C10.32 13.4448 10.5132 13.5672 10.7484 13.458L13.4424 12.2004C13.6788 12.09 13.6788 11.91 13.4436 11.7996ZM11.52 0.47998C5.1576 0.47998 0 5.63758 0 12C0 18.3624 5.1576 23.52 11.52 23.52C17.8824 23.52 23.04 18.3624 23.04 12C23.04 5.63758 17.8824 0.47998 11.52 0.47998ZM11.52 16.68C5.6232 16.68 5.52 16.1484 5.52 12C5.52 7.85158 5.6232 7.31998 11.52 7.31998C17.4168 7.31998 17.52 7.85158 17.52 12C17.52 16.1484 17.4168 16.68 11.52 16.68Z" fill="#828387"/>
</svg>
