<svg width="24" height="24" viewBox="0 0 24 24" fill="none" xmlns="http://www.w3.org/2000/svg">
<path fill-rule="evenodd" clip-rule="evenodd" d="M12 24C18.6274 24 24 18.6274 24 12C24 5.37258 18.6274 0 12 0C5.37258 0 0 5.37258 0 12C0 18.6274 5.37258 24 12 24ZM13.6908 5.77386C13.2531 5.76338 12.8152 5.75898 12.3774 5.76066L11.1438 5.76006C10.7062 5.75901 10.2685 5.76401 9.831 5.77506L9.7146 5.77806L9.2874 5.79606C8.6484 5.82606 8.2134 5.92686 7.8306 6.07506C7.43038 6.22601 7.06794 6.46251 6.7686 6.76806C6.46258 7.06713 6.22582 7.42963 6.075 7.83006C5.9268 8.21286 5.826 8.64786 5.796 9.28686C5.7888 9.44646 5.7828 9.57966 5.778 9.71406L5.7738 9.83046C5.76333 10.268 5.75893 10.7056 5.7606 11.1433V12.3769C5.75954 12.8147 5.76454 13.2526 5.7756 13.6903L5.7786 13.8067C5.78392 13.9491 5.78992 14.0915 5.7966 14.2339C5.8266 14.8723 5.9274 15.3079 6.0756 15.6901C6.22633 16.0906 6.46263 16.4534 6.768 16.7533C7.06754 17.0586 7.43021 17.2947 7.8306 17.4451C8.2134 17.5927 8.649 17.6947 9.2874 17.7247C9.42976 17.7315 9.57217 17.7375 9.7146 17.7427L9.831 17.7463C10.2687 17.7569 10.7066 17.7615 11.1444 17.7601H11.9298L12.3774 17.7595C12.8152 17.7609 13.2531 17.7563 13.6908 17.7457L13.8072 17.7421C13.9374 17.7374 14.066 17.7316 14.2196 17.7247L14.2344 17.7241C14.8728 17.6941 15.3084 17.5933 15.6906 17.4451C16.091 17.2943 16.4538 17.0583 16.7538 16.7533C17.0593 16.4536 17.2954 16.0907 17.4456 15.6901C17.5932 15.3079 17.6952 14.8723 17.7252 14.2339L17.7259 14.219C17.7328 14.0654 17.7386 13.9369 17.7432 13.8067L17.7468 13.6903C17.7575 13.2525 17.7621 12.8147 17.7606 12.3769V11.5909L17.76 11.1433C17.7615 10.7056 17.7569 10.268 17.7462 9.83046L17.7426 9.71406C17.7378 9.57966 17.7318 9.44646 17.7246 9.28686C17.6946 8.64846 17.5938 8.21226 17.4456 7.83006C17.2949 7.42983 17.0588 7.06723 16.7538 6.76746C16.4202 6.43386 16.0866 6.22746 15.6906 6.07506C15.3084 5.92686 14.8728 5.82606 14.2344 5.79606L14.2196 5.7954C14.066 5.78849 13.9374 5.78271 13.8072 5.77806L13.6908 5.77386ZM10.5996 8.9767C10.9685 8.82848 11.3631 8.75504 11.7606 8.76066C12.5562 8.76066 13.3193 9.07613 13.8819 9.63874C14.4445 10.2014 14.7606 10.9644 14.7606 11.7601C14.7606 12.5557 14.4445 13.3188 13.8819 13.8814C13.3193 14.444 12.5562 14.7601 11.7606 14.7601C11.3631 14.7657 10.9685 14.6922 10.5996 14.544C10.2307 14.3958 9.89499 14.1757 9.61191 13.8966C9.32883 13.6175 9.10404 13.2849 8.95061 12.9182C8.79718 12.5515 8.71817 12.1579 8.71817 11.7604C8.71817 11.3628 8.79718 10.9693 8.95061 10.6025C9.10404 10.2358 9.32883 9.9032 9.61191 9.62409C9.89499 9.34499 10.2307 9.12493 10.5996 8.9767ZM12.4595 10.088C12.2373 9.99954 11.9997 9.95626 11.7606 9.96066L11.7612 9.96006C11.2838 9.96006 10.826 10.1497 10.4884 10.4873C10.1508 10.8248 9.9612 11.2827 9.9612 11.7601C9.9612 12.2375 10.1508 12.6953 10.4884 13.0329C10.826 13.3704 11.2838 13.5601 11.7612 13.5601C12.0003 13.5644 12.2379 13.521 12.46 13.4325C12.6822 13.344 12.8845 13.2121 13.0551 13.0445C13.2257 12.8769 13.3612 12.677 13.4537 12.4565C13.5462 12.236 13.5938 11.9992 13.5938 11.7601C13.5937 11.5209 13.546 11.2842 13.4535 11.0637C13.3609 10.8432 13.2253 10.6433 13.0547 10.4758C12.884 10.3083 12.6817 10.1764 12.4595 10.088ZM14.3998 8.09044C14.534 7.95075 14.717 7.86841 14.9106 7.86066V7.85946C15.1095 7.85946 15.3003 7.93848 15.4409 8.07913C15.5816 8.21978 15.6606 8.41055 15.6606 8.60946C15.6606 8.80837 15.5816 8.99914 15.4409 9.13979C15.3003 9.28044 15.1095 9.35946 14.9106 9.35946C14.717 9.35171 14.534 9.26937 14.3998 9.12968C14.2656 8.98999 14.1906 8.80378 14.1906 8.61006C14.1906 8.41634 14.2656 8.23014 14.3998 8.09044Z" fill="#828387"/>
</svg>
