<svg width="24" height="24" viewBox="0 0 24 24" fill="none" xmlns="http://www.w3.org/2000/svg">
<path fill-rule="evenodd" clip-rule="evenodd" d="M12 24C18.6274 24 24 18.6274 24 12C24 5.37258 18.6274 0 12 0C5.37258 0 0 5.37258 0 12C0 18.6274 5.37258 24 12 24ZM14.2577 6C14.2575 6.69162 14.4977 7.35975 14.9337 7.88C15.801 8.92667 17 8.86667 17 8.86667V10.9267C16.0162 10.9284 15.0568 10.6066 14.2577 10.0067V14.2C14.2577 16.3 12.6314 18 10.6288 18C8.7602 18 7 16.42 7 14.2C7 11.92 8.92602 10.1333 11.1263 10.44V12.5467C10.0357 12.1933 8.97704 13.0533 8.97704 14.2C8.97704 15.16 9.72959 15.9333 10.6352 15.9333C11.0634 15.9333 11.4749 15.7595 11.783 15.4486C12.0911 15.1377 12.2718 14.714 12.287 14.2667V6H14.2577Z" fill="#828387"/>
</svg>
