<svg width="24" height="24" viewBox="0 0 24 24" fill="none" xmlns="http://www.w3.org/2000/svg">
<path fill-rule="evenodd" clip-rule="evenodd" d="M12 24C18.6274 24 24 18.6274 24 12C24 5.37258 18.6274 0 12 0C5.37258 0 0 5.37258 0 12C0 18.6274 5.37258 24 12 24ZM12 6C15.3134 6 18 8.70284 18 12.0362C18 15.0498 15.8063 17.547 12.9375 18V13.7816H14.3354L14.6012 12.0362H12.9372V10.9044C12.9372 10.4264 13.1703 9.96129 13.9152 9.96129H14.6721V8.47567C14.6721 8.47567 13.9854 8.35764 13.3288 8.35764C11.9585 8.35764 11.0625 9.19382 11.0625 10.7064V12.0362H9.53866V13.7816H11.0625V17.9995C8.19375 17.5462 6 15.049 6 12.0362C6 8.70284 8.68661 6 12 6Z" fill="#828387"/>
</svg>
