<svg width="38" height="64" fill="none" xmlns="http://www.w3.org/2000/svg"><path d="M19 35.167c6.54 0 11.875-5.336 11.875-11.875v-7.917C30.875 8.835 25.539 3.5 19 3.5c-6.54 0-11.875 5.336-11.875 11.875v7.917c0 6.539 5.336 11.875 11.875 11.875Z" stroke="#fff" stroke-width="1.5" stroke-linecap="round" stroke-linejoin="round"/><path d="M19 17.75a2.372 2.372 0 0 1-2.375-2.375v-3.167A2.372 2.372 0 0 1 19 9.833a2.382 2.382 0 0 1 2.375 2.375v3.167A2.382 2.382 0 0 1 19 17.75ZM19 9.833V3.5M11.083 47.833 19 55.75l7.916-7.917" stroke="#fff" stroke-width="1.5" stroke-linecap="round" stroke-linejoin="round"/></svg>